<svg id="Layer_1" data-name="Layer 1" xmlns="http://www.w3.org/2000/svg" viewBox="0 0 600 600"><defs><style>.cls-1,.cls-3,.cls-4{fill:none;}.cls-2{fill:#ed7d26;}.cls-3,.cls-4{stroke:#fff;stroke-miterlimit:10;}.cls-3{stroke-width:29.42px;}.cls-4{stroke-width:29.22px;}</style></defs><rect class="cls-1" width="600" height="600"/><path class="cls-2" d="M320.73,349.05c-12.14,9-25,18.76-38.13,28.83C218.83,426.62,139.39,487.23,97.39,480.77c-7.83-1.22-13.7-5-18.48-11.8-6.37-9.11-8.15-18.29-5.58-28.89,6.78-28,41.09-57.83,71.11-78.74l-6,23.54a18.44,18.44,0,0,0,35.76,9.05l17.11-67.64a18.44,18.44,0,0,0-26.47-20.84c-11.36,6-111.49,60.37-127.39,125.92-5,20.75-1.16,41.06,11.2,58.74,10.64,15.2,25.13,24.32,43.05,27.1a77.57,77.57,0,0,0,11.8.88c56.34,0,130-56.32,201.45-110.91,13-9.95,25.66-19.61,37.71-28.5"/><circle class="cls-3" cx="363.12" cy="340.12" r="41.44"/><circle class="cls-3" cx="442.1" cy="123.35" r="41.44"/><line class="cls-4" x1="376.87" y1="298.68" x2="428.8" y2="159.08"/><circle class="cls-3" cx="523.21" cy="290.96" r="41.44"/><line class="cls-4" x1="400.65" y1="335.51" x2="476.25" y2="310.87"/></svg>