<svg id="Layer_1" data-name="Layer 1" xmlns="http://www.w3.org/2000/svg" viewBox="0 0 567.35 147.51"><defs><style>.cls-1{fill:#fff;}.cls-2{fill:#ed7d26;}.cls-3,.cls-4{fill:none;stroke:#fff;stroke-miterlimit:10;}.cls-3{stroke-width:9.62px;}.cls-4{stroke-width:9.56px;}</style></defs><path class="cls-1" d="M222.26,302.83V251.14h17.23L253.85,301H247.6L262,251.14h17.31v51.69H268.35V254.22h1.87l-14,48.61H244.8L231,254.66h1.79v48.17Z" transform="translate(-16.33 -201.18)"/><path class="cls-1" d="M304.39,303.55a22.2,22.2,0,0,1-10.62-2.41,17.15,17.15,0,0,1-7-6.71,21.1,21.1,0,0,1,0-19.85,17.41,17.41,0,0,1,6.93-6.68A21.41,21.41,0,0,1,304,265.5a20.07,20.07,0,0,1,9.84,2.29,16.34,16.34,0,0,1,6.46,6.39,19.37,19.37,0,0,1,2.3,9.62c0,.77,0,1.48-.07,2.12s-.12,1.26-.22,1.83H290.61v-7.1h23.05l-1.87,1.29q0-4.45-2.12-6.57a7.82,7.82,0,0,0-5.78-2.12,8,8,0,0,0-6.57,2.87Q295,279,295,284.74t2.33,8.33c1.56,1.82,3.89,2.72,7,2.72a10.42,10.42,0,0,0,4.45-.86,5.65,5.65,0,0,0,2.8-2.8H321.7a16.34,16.34,0,0,1-6.14,8.37Q311.21,303.54,304.39,303.55Z" transform="translate(-16.33 -201.18)"/><path class="cls-1" d="M343.16,303.55q-8,0-12.78-3.23a11.34,11.34,0,0,1-5.17-8.91h9.62a4.93,4.93,0,0,0,2.48,3.7,11.45,11.45,0,0,0,5.85,1.26,9.52,9.52,0,0,0,4.92-1,3.08,3.08,0,0,0,1.54-2.76,2.63,2.63,0,0,0-.89-2.12,7.85,7.85,0,0,0-3.27-1.26L339.57,288q-6.52-1.37-9.62-4.13a9.13,9.13,0,0,1-3.09-7.14,9.67,9.67,0,0,1,4.1-8.29q4.08-3,11.41-3t11.56,2.9a10.35,10.35,0,0,1,4.74,8.08h-9.62a3.77,3.77,0,0,0-2-2.83,10,10,0,0,0-4.88-1,8.69,8.69,0,0,0-4.28.82,2.58,2.58,0,0,0-1.39,2.34,2.33,2.33,0,0,0,1.14,2,12,12,0,0,0,3.81,1.33l6.6,1.36q5.54,1.15,8.37,4.28a10.57,10.57,0,0,1,2.83,7.35,9.68,9.68,0,0,1-4.2,8.37Q350.84,303.56,343.16,303.55Z" transform="translate(-16.33 -201.18)"/><path class="cls-1" d="M364.56,302.83V251.14h10.77v51.69Zm25.48,0V280.14a6,6,0,0,0-1.54-4.52,6.14,6.14,0,0,0-4.49-1.51,8.79,8.79,0,0,0-4.48,1.15,8.16,8.16,0,0,0-3.09,3.16,9.65,9.65,0,0,0-1.11,4.74l-.94-8.83a15.23,15.23,0,0,1,5.28-6.43,14.75,14.75,0,0,1,8.58-2.4q6.11,0,9.33,3.41t3.23,9.15v24.77Z" transform="translate(-16.33 -201.18)"/><path class="cls-2" d="M408.28,302.83V251.14h11.06v51.69Zm5.17-31.16h33.31v8.47H413.45Zm28.29,31.16V251.14h11.05v51.69Z" transform="translate(-16.33 -201.18)"/><path class="cls-2" d="M478.06,303.55a22.3,22.3,0,0,1-10.59-2.41,17.5,17.5,0,0,1-7.1-6.75,19.38,19.38,0,0,1-2.55-10,18.86,18.86,0,0,1,2.55-9.91,17.48,17.48,0,0,1,7.1-6.6,25,25,0,0,1,21.26,0,17.34,17.34,0,0,1,7.07,6.6,19.13,19.13,0,0,1,2.51,9.91,19.38,19.38,0,0,1-2.55,10,17.52,17.52,0,0,1-7.11,6.75A22.3,22.3,0,0,1,478.06,303.55Zm0-8.47a8.28,8.28,0,0,0,4.56-1.3,9.07,9.07,0,0,0,3.27-3.69,12.71,12.71,0,0,0,1.22-5.78c0-3.31-.87-5.85-2.62-7.65a9,9,0,0,0-12.85,0c-1.75,1.82-2.62,4.35-2.62,7.61a12.58,12.58,0,0,0,1.22,5.78,9.07,9.07,0,0,0,3.27,3.69A8.27,8.27,0,0,0,478.06,295.08Z" transform="translate(-16.33 -201.18)"/><path class="cls-2" d="M521.43,303.55a22.3,22.3,0,0,1-10.59-2.41,17.52,17.52,0,0,1-7.11-6.75,19.38,19.38,0,0,1-2.55-10,18.86,18.86,0,0,1,2.55-9.91,17.5,17.5,0,0,1,7.11-6.6,25,25,0,0,1,21.25,0,17.21,17.21,0,0,1,7.07,6.6,19,19,0,0,1,2.52,9.91,19.48,19.48,0,0,1-2.55,10,17.52,17.52,0,0,1-7.11,6.75A22.3,22.3,0,0,1,521.43,303.55Zm0-8.47a8.33,8.33,0,0,0,4.56-1.3,9.21,9.21,0,0,0,3.27-3.69,12.71,12.71,0,0,0,1.22-5.78c0-3.31-.88-5.85-2.63-7.65a9,9,0,0,0-12.85,0c-1.75,1.82-2.62,4.35-2.62,7.61a12.71,12.71,0,0,0,1.22,5.78,9.21,9.21,0,0,0,3.27,3.69A8.28,8.28,0,0,0,521.43,295.08Z" transform="translate(-16.33 -201.18)"/><path class="cls-2" d="M547.42,302.83V251.14h10.77v51.69Zm23.48,0-15.23-19,14.87-17.59H583l-17.45,19.25.5-3.38,17.66,20.75Z" transform="translate(-16.33 -201.18)"/><path class="cls-2" d="M109.69,293.39c-4,2.94-8.16,6.14-12.47,9.43-20.87,15.95-46.86,35.78-60.6,33.66a8.59,8.59,0,0,1-6-3.86,11,11,0,0,1-1.83-9.45C31,314,42.2,304.25,52,297.41l-2,7.7a6,6,0,1,0,11.69,3l5.6-22.13a6,6,0,0,0-8.66-6.81C55,281.08,22.23,298.88,17,320.32a23.17,23.17,0,0,0,3.66,19.22,20.49,20.49,0,0,0,14.08,8.86,24.62,24.62,0,0,0,3.86.29c18.44,0,42.55-18.42,65.91-36.28,4.26-3.26,8.4-6.42,12.34-9.33" transform="translate(-16.33 -201.18)"/><circle class="cls-3" cx="107.23" cy="89.29" r="13.56"/><circle class="cls-3" cx="133.07" cy="18.37" r="13.56"/><line class="cls-4" x1="111.73" y1="75.73" x2="128.72" y2="30.06"/><circle class="cls-3" cx="159.61" cy="73.21" r="13.56"/><line class="cls-4" x1="119.51" y1="87.78" x2="144.25" y2="79.72"/></svg>